<svg id="visual" viewBox="0 0 1600 200" width="1600" height="200" xmlns="http://www.w3.org/2000/svg" xmlns:xlink="http://www.w3.org/1999/xlink" version="1.1"><path d="M0 50L24.2 52.5C48.3 55 96.7 60 145.2 67.7C193.7 75.3 242.3 85.7 290.8 89.7C339.3 93.7 387.7 91.3 436.2 98.8C484.7 106.3 533.3 123.7 581.8 122.2C630.3 120.7 678.7 100.3 727.2 90.7C775.7 81 824.3 82 872.8 87.8C921.3 93.7 969.7 104.3 1018.2 103.5C1066.7 102.7 1115.3 90.3 1163.8 95.2C1212.3 100 1260.7 122 1309.2 120.2C1357.7 118.3 1406.3 92.7 1454.8 80.2C1503.3 67.7 1551.7 68.3 1575.8 68.7L1600 69L1600 201L1575.8 201C1551.7 201 1503.3 201 1454.8 201C1406.3 201 1357.7 201 1309.2 201C1260.7 201 1212.3 201 1163.8 201C1115.3 201 1066.7 201 1018.2 201C969.7 201 921.3 201 872.8 201C824.3 201 775.7 201 727.2 201C678.7 201 630.3 201 581.8 201C533.3 201 484.7 201 436.2 201C387.7 201 339.3 201 290.8 201C242.3 201 193.7 201 145.2 201C96.7 201 48.3 201 24.2 201L0 201Z" fill="#FFFFFF" stroke-linecap="round" stroke-linejoin="miter"></path></svg>