<svg id="visual" viewBox="0 0 1600 200" width="1600" height="200" xmlns="http://www.w3.org/2000/svg" xmlns:xlink="http://www.w3.org/1999/xlink" version="1.1"><path d="M0 61L9.5 68.7C19 76.3 38 91.7 57 96.2C76 100.7 95 94.3 114 91C133 87.7 152 87.3 171.2 84.5C190.3 81.7 209.7 76.3 228.8 84C248 91.7 267 112.3 286 117.5C305 122.7 324 112.3 343 108.7C362 105 381 108 400 103.3C419 98.7 438 86.3 457 90.8C476 95.3 495 116.7 514 123C533 129.3 552 120.7 571.2 112.8C590.3 105 609.7 98 628.8 99.3C648 100.7 667 110.3 686 111C705 111.7 724 103.3 743 97.3C762 91.3 781 87.7 800 83.7C819 79.7 838 75.3 857 74.8C876 74.3 895 77.7 914 84.8C933 92 952 103 971.2 104.7C990.3 106.3 1009.7 98.7 1028.8 92.7C1048 86.7 1067 82.3 1086 85C1105 87.7 1124 97.3 1143 106.2C1162 115 1181 123 1200 121.3C1219 119.7 1238 108.3 1257 101.3C1276 94.3 1295 91.7 1314 86.8C1333 82 1352 75 1371.2 80.7C1390.3 86.3 1409.7 104.7 1428.8 109.8C1448 115 1467 107 1486 109.2C1505 111.3 1524 123.7 1543 122C1562 120.3 1581 104.7 1590.5 96.8L1600 89L1600 201L1590.5 201C1581 201 1562 201 1543 201C1524 201 1505 201 1486 201C1467 201 1448 201 1428.8 201C1409.7 201 1390.3 201 1371.2 201C1352 201 1333 201 1314 201C1295 201 1276 201 1257 201C1238 201 1219 201 1200 201C1181 201 1162 201 1143 201C1124 201 1105 201 1086 201C1067 201 1048 201 1028.8 201C1009.7 201 990.3 201 971.2 201C952 201 933 201 914 201C895 201 876 201 857 201C838 201 819 201 800 201C781 201 762 201 743 201C724 201 705 201 686 201C667 201 648 201 628.8 201C609.7 201 590.3 201 571.2 201C552 201 533 201 514 201C495 201 476 201 457 201C438 201 419 201 400 201C381 201 362 201 343 201C324 201 305 201 286 201C267 201 248 201 228.8 201C209.7 201 190.3 201 171.2 201C152 201 133 201 114 201C95 201 76 201 57 201C38 201 19 201 9.5 201L0 201Z" fill="#ffffff" stroke-linecap="round" stroke-linejoin="miter"></path></svg>