<svg id="visual" viewBox="0 0 2000 600" width="2000" height="600" xmlns="http://www.w3.org/2000/svg" xmlns:xlink="http://www.w3.org/1999/xlink" version="1.1"><path d="M0 58L25.7 68.7C51.3 79.3 102.7 100.7 154 100C205.3 99.3 256.7 76.7 308 67.5C359.3 58.3 410.7 62.7 461.8 70.3C513 78 564 89 615.2 88.3C666.3 87.7 717.7 75.3 769 79.2C820.3 83 871.7 103 923 105.7C974.3 108.3 1025.7 93.7 1077 86.2C1128.3 78.7 1179.7 78.3 1231 82.3C1282.3 86.3 1333.7 94.7 1384.8 94C1436 93.3 1487 83.7 1538.2 78.3C1589.3 73 1640.7 72 1692 77.3C1743.3 82.7 1794.7 94.3 1846 98.8C1897.3 103.3 1948.7 100.7 1974.3 99.3L2000 98L2000 0L1974.3 0C1948.7 0 1897.3 0 1846 0C1794.7 0 1743.3 0 1692 0C1640.7 0 1589.3 0 1538.2 0C1487 0 1436 0 1384.8 0C1333.7 0 1282.3 0 1231 0C1179.7 0 1128.3 0 1077 0C1025.7 0 974.3 0 923 0C871.7 0 820.3 0 769 0C717.7 0 666.3 0 615.2 0C564 0 513 0 461.8 0C410.7 0 359.3 0 308 0C256.7 0 205.3 0 154 0C102.7 0 51.3 0 25.7 0L0 0Z" fill="#3c3f43" stroke-linecap="round" stroke-linejoin="miter"></path></svg>