<svg id="visual" viewBox="0 0 2000 200" width="2000" height="200" xmlns="http://www.w3.org/2000/svg" xmlns:xlink="http://www.w3.org/1999/xlink" version="1.1"><path d="M0 91L25.7 96.2C51.3 101.3 102.7 111.7 154 108.3C205.3 105 256.7 88 308 85.3C359.3 82.7 410.7 94.3 461.8 104.8C513 115.3 564 124.7 615.2 130.2C666.3 135.7 717.7 137.3 769 131.2C820.3 125 871.7 111 923 99.2C974.3 87.3 1025.7 77.7 1077 78.3C1128.3 79 1179.7 90 1231 96C1282.3 102 1333.7 103 1384.8 108.5C1436 114 1487 124 1538.2 122.3C1589.3 120.7 1640.7 107.3 1692 107.3C1743.3 107.3 1794.7 120.7 1846 118C1897.3 115.3 1948.7 96.7 1974.3 87.3L2000 78L2000 0L1974.3 0C1948.7 0 1897.3 0 1846 0C1794.7 0 1743.3 0 1692 0C1640.7 0 1589.3 0 1538.2 0C1487 0 1436 0 1384.8 0C1333.7 0 1282.3 0 1231 0C1179.7 0 1128.3 0 1077 0C1025.7 0 974.3 0 923 0C871.7 0 820.3 0 769 0C717.7 0 666.3 0 615.2 0C564 0 513 0 461.8 0C410.7 0 359.3 0 308 0C256.7 0 205.3 0 154 0C102.7 0 51.3 0 25.7 0L0 0Z" fill="#3c3f43" stroke-linecap="round" stroke-linejoin="miter"></path></svg>